PathFileType	4	(X/Y/Z)	D:\Share\Shared_Data\Ergonomics\Sit To Stand Pertubation\S3\Perturbed.trc
DataRate	CameraRate	NumFrames	NumMarkers	Units	OrigDataRate	OrigDataStartFrame	OrigNumFrames	
100	100	14	18	m	100	11629	211
Frame#	Time	R_ASIS			R_Pelvis			V_Sacral			L_Pelvis			L_ASIS			Clavical			R_Acromium			L_Acromium			Sternum			Torso			R_Thigh_Med			R_Thigh_Lat			R_Thigh			R_Shank_Med			R_Shank_Lat			R_Shank			R_Heel			R_Toe			
		X1	Y1	Z1	X2	Y2	Z2	X3	Y3	Z3	X4	Y4	Z4	X5	Y5	Z5	X6	Y6	Z6	X7	Y7	Z7	X8	Y8	Z8	X9	Y9	Z9	X10	Y10	Z10	X11	Y11	Z11	X12	Y12	Z12	X13	Y13	Z13	X14	Y14	Z14	X15	Y15	Z15	X16	Y16	Z16	X17	Y17	Z17	X18	Y18	Z18	

11629	116.28	0.3764227	0.94797516	0.15437178	0.26452646	0.94681165	0.20001141	0.16340578	0.96526837	0.0058023434	0.28942157	0.95788953	-0.18696471	0.39183444	0.94191418	-0.12749149	0.33088156	1.3776813	0.015940089	0.2679382	1.422051	0.18703221	0.28470294	1.4232812	-0.14802922	0.36509845	1.3026942	0.020250549	0.33989536	1.3614061	-0.048756844	0.33983789	0.46446353	0.044029083	0.32387885	0.45588791	0.15141356	0.40544373	0.66299847	0.11014019	0.34719791	0.047427856	0.11580719	0.27966403	0.09475312	0.17307262	0.27191446	0.28249915	0.17656395	0.22039954	0.047338829	0.12833078	0.4385993	0.056262131	0.11288289
11630	116.29	0.37718634	0.94821545	0.15430104	0.26532703	0.94648743	0.19967319	0.16408023	0.96463312	0.0058907795	0.29001431	0.95779266	-0.18625066	0.39266507	0.94226532	-0.12771947	0.33030157	1.3775925	0.016084515	0.26661484	1.4215992	0.1871955	0.28440222	1.4231101	-0.1488894	0.36472464	1.3026443	0.020564798	0.3396781	1.361303	-0.048526539	0.34049725	0.4644548	0.043798019	0.3248656	0.45581613	0.15143866	0.40645908	0.66311707	0.10958807	0.35977789	0.034026451	0.1218133	0.27970047	0.094753304	0.17309177	0.2724104	0.28254865	0.17645885	0.22038882	0.047354637	0.12833618	0.43859006	0.056295311	0.11284013
11631	116.3	0.37786166	0.94854022	0.154211	0.26601871	0.94622498	0.19937392	0.16462053	0.9638399	0.0059763618	0.29046771	0.95764996	-0.18577882	0.39343521	0.9426958	-0.12809271	0.32982993	1.3775413	0.01622716	0.26566251	1.4213722	0.18727184	0.28432697	1.4231855	-0.14941397	0.36439563	1.3026541	0.020865824	0.33951022	1.3613142	-0.048313313	0.34110611	0.46446997	0.043683731	0.32563049	0.45579886	0.15150865	0.4073692	0.66323816	0.10930132	0.36967706	0.023409945	0.12653555	0.2796857	0.09474968	0.17308173	0.27274762	0.28262857	0.1763907	0.22037148	0.047447708	0.12841853	0.43855679	0.056367977	0.11282796
11632	116.31	0.37845273	0.94891895	0.1541199	0.26660602	0.94603937	0.19914743	0.16506493	0.96293732	0.0060308161	0.29085986	0.95747675	-0.18553763	0.39419006	0.94317358	-0.12862389	0.3294548	1.3775156	0.016369034	0.26505725	1.4213333	0.18728157	0.28445923	1.4234723	-0.14963177	0.36410922	1.3027184	0.021151196	0.33937772	1.361424	-0.048113159	0.34171695	0.46449179	0.04369767	0.32620908	0.45582184	0.15162454	0.4082037	0.66334808	0.10931639	0.37542038	0.017168329	0.1292626	0.27962491	0.094745369	0.17304402	0.27296347	0.28272791	0.17636359	0.2203537	0.04766412	0.12861203	0.4385061	0.056472889	0.11284954
11633	116.32	0.37896057	0.94931921	0.15404939	0.26709204	0.9459306	0.19900935	0.16545535	0.96197882	0.0060336142	0.29124979	0.95729077	-0.18549728	0.39494299	0.9436593	-0.12930099	0.32916354	1.3775055	0.016510042	0.26475562	1.421433	0.18724785	0.28476633	1.4239209	-0.14960709	0.36386295	1.3028302	0.021416876	0.33926981	1.3616104	-0.047924004	0.34238074	0.4644989	0.043843418	0.32665247	0.4558678	0.1517879	0.40899432	0.66343921	0.10963562	0.3761105	0.016313574	0.12959476	0.27953195	0.094743378	0.17299284	0.27309506	0.28283597	0.17636842	0.2203427	0.04805201	0.12894995	0.43844669	0.056601452	0.1129053
11634	116.33	0.37938715	0.94971014	0.1540218	0.26748236	0.94588391	0.19895073	0.16583354	0.96101697	0.0059734378	0.29167499	0.95710803	-0.18561501	0.39568106	0.94411035	-0.13007692	0.32894202	1.3775023	0.016648535	0.26470279	1.4216155	0.18719241	0.28520285	1.424472	-0.14941631	0.3636539	1.302979	0.021657034	0.33917834	1.3618474	-0.04774612	0.34313742	0.46447116	0.044116062	0.32701865	0.45591934	0.15200075	0.40976837	0.66351007	0.11022847	0.37172913	0.020922487	0.12755856	0.27942242	0.094745186	0.17294157	0.27317612	0.28294348	0.17638881	0.22034518	0.048647514	0.12945515	0.43838776	0.056743866	0.11299233
11635	116.34	0.37973764	0.95006586	0.15405682	0.26778229	0.94587299	0.19894508	0.16623264	0.96010065	0.0058478746	0.29215173	0.95693945	-0.18583896	0.39637564	0.94448438	-0.13084892	0.32877533	1.3774974	0.016781488	0.26483994	1.4218256	0.18713341	0.28571411	1.4250614	-0.14913335	0.36347858	1.3031499	0.021864662	0.33909637	1.3621069	-0.047581772	0.34401096	0.46439819	0.044494423	0.32736279	0.45596246	0.15225679	0.41054416	0.66356299	0.11103682	0.3633447	0.02988051	0.12366342	0.27930789	0.094749893	0.17289136	0.27323569	0.28304337	0.17640739	0.22036549	0.049452328	0.13012321	0.43833746	0.056888958	0.11310403
11636	116.35	0.38002219	0.95036798	0.15416772	0.2679938	0.9458653	0.19896284	0.16666953	0.95927289	0.0056629405	0.29267682	0.9567901	-0.18611302	0.39699695	0.94474207	-0.13145146	0.32864786	1.3774839	0.016904781	0.26510922	1.4220139	0.18708447	0.28624008	1.4256241	-0.14882051	0.36333286	1.3033259	0.022032314	0.33901736	1.3623619	-0.047434582	0.34500766	0.46428412	0.044935757	0.32772931	0.45598907	0.15253291	0.41132904	0.66360211	0.11198322	0.35302335	0.040971237	0.11886137	0.27919785	0.09475576	0.17283757	0.27329852	0.28313007	0.17641148	0.22040315	0.050401627	0.1308981	0.43830118	0.057024342	0.11323012
11637	116.36	0.38025491	0.95060748	0.15435823	0.26811893	0.94582983	0.19897784	0.16714359	0.95856744	0.0054322371	0.29323328	0.9566601	-0.18638292	0.39752789	0.94485791	-0.1317175	0.32854437	1.3774548	0.017013668	0.26545596	1.4221421	0.18705482	0.28672217	1.426105	-0.14852368	0.36321225	1.3034865	0.022153204	0.33893567	1.3625889	-0.047308765	0.34611383	0.46414261	0.045385456	0.3281467	0.45599704	0.15279654	0.41212	0.66363208	0.1129802	0.34288391	0.05190731	0.1141276	0.27910413	0.09476181	0.1727834	0.27338538	0.28319983	0.17639619	0.22045155	0.051345612	0.13165753	0.43828055	0.057138	0.11335784
11638	116.37	0.3804527	0.95078351	0.15462077	0.26816495	0.94574384	0.19897038	0.16764177	0.95800452	0.0051747384	0.29379724	0.95654657	-0.18660182	0.39797089	0.94483771	-0.13158003	0.3284516	1.3774052	0.017103556	0.26582971	1.4221838	0.18704987	0.28711096	1.4264659	-0.14827145	0.36311194	1.3036117	0.022222836	0.33884747	1.3627683	-0.04720834	0.34729205	0.46398813	0.045797832	0.32862546	0.45598672	0.15302548	0.41290601	0.66365613	0.11393945	0.33391544	0.061611168	0.10990865	0.27903824	0.094767799	0.17273923	0.27351212	0.28325055	0.17636459	0.2205002	0.052093208	0.13224826	0.4382739	0.05722097	0.11347469
11639	116.38	0.38063339	0.95090155	0.15493689	0.26814603	0.94559692	0.19893304	0.16814615	0.95758917	0.0049123735	0.29434485	0.95644598	-0.18673438	0.39834195	0.94472382	-0.13109352	0.32835983	1.3773297	0.017170956	0.26618436	1.4221255	0.18707124	0.28737009	1.4266888	-0.14807803	0.36302725	1.3036826	0.022240557	0.33875131	1.3628842	-0.047136467	0.34848254	0.46382968	0.046148468	0.32915961	0.45595801	0.15321902	0.41367053	0.66367474	0.11478127	0.32614963	0.070033302	0.10620798	0.27900552	0.094773399	0.17271455	0.27368741	0.28328214	0.17632544	0.22053941	0.052502518	0.13255916	0.43827768	0.057269497	0.11357114
11640	116.39	0.38081445	0.9509704	0.15527924	0.26808322	0.94539221	0.19887315	0.16863773	0.9573125	0.0046684179	0.29485684	0.95635516	-0.18676057	0.39866293	0.94457312	-0.13038017	0.32826416	1.3772239	0.017214478	0.26647992	1.4219657	0.18711731	0.28747818	1.4267716	-0.14794728	0.3629538	1.3036859	0.022210442	0.33864825	1.3629265	-0.047094631	0.3496123	0.46367169	0.046428299	0.32972937	0.45591122	0.15338736	0.41439407	0.66368573	0.11544337	0.31946768	0.077287949	0.10297367	0.27900455	0.094777496	0.17271614	0.27390988	0.28329593	0.17628937	0.22056334	0.052535915	0.13256493	0.43828757	0.057285156	0.11364182
11641	116.4	0.38101138	0.95099884	0.15561552	0.26800473	0.94514484	0.19880774	0.16909766	0.95715668	0.0044654365	0.29532089	0.95627234	-0.18667879	0.39895642	0.94443292	-0.12958481	0.32816449	1.377085	0.017235485	0.26668442	1.4217148	0.18718352	0.28742786	1.4267257	-0.14787592	0.36288831	1.3036157	0.022141319	0.33854144	1.3628904	-0.047082054	0.35061044	0.46351843	0.046628284	0.33030399	0.45584998	0.15353075	0.41505649	0.66368427	0.11588763	0.31367865	0.083569626	0.10012728	0.27903006	0.094777969	0.17274863	0.2741676	0.28329404	0.17626501	0.22056938	0.052240829	0.13230928	0.43829901	0.057273331	0.11368504
11642	116.41	0.3812363	0.95099426	0.15591405	0.26794473	0.94487811	0.19875661	0.16950847	0.95709808	0.0043222451	0.29573087	0.95619788	-0.18650618	0.39923917	0.9443316	-0.12883252	0.32806485	1.3769132	0.017238094	0.26677612	1.4213917	0.18726381	0.2872243	1.4265704	-0.14785593	0.36282886	1.303475	0.022045872	0.33843515	1.3627781	-0.04709573	0.35141995	0.46337683	0.046733711	0.33084607	0.45578027	0.1536326	0.41563834	0.66366443	0.1161039	0.30887704	0.088768707	0.097735046	0.27907489	0.094772247	0.17281227	0.27444031	0.28327841	0.17625696	0.22055627	0.051681053	0.13184808	0.43830798	0.057241402	0.11370206
